<svg width="44" height="43" viewBox="0 0 44 43" fill="none" xmlns="http://www.w3.org/2000/svg">
<path d="M25.7996 33.0998C22.2996 31.7998 18.6996 31.5998 15.3996 32.4998C13.0996 33.0998 10.8996 34.2998 8.89963 35.7998L7.4996 36.9998L7.09961 37.3998L7.9996 38.1998C8.0996 38.1998 8.09962 38.2998 8.19962 38.3998C8.39962 38.5998 8.59963 38.6998 8.89963 38.8998L9.4996 39.2998L10.0996 38.7998C10.1996 38.6998 10.3996 38.4998 10.5996 38.3998C12.3996 36.8998 14.3996 35.8998 16.4996 35.3998C19.1996 34.6998 22.0996 34.7998 24.9996 35.8998C27.3996 36.7998 32.2996 37.8998 38.1996 35.3998L38.3996 35.2998L38.6996 34.9998C38.6996 34.8998 38.7996 34.8998 38.8996 34.7998C39.3996 34.1998 39.8996 33.5998 40.2996 32.8998L42.2996 29.7998L39.0996 31.5998C34.3996 34.1998 30.0996 34.6998 25.7996 33.0998Z" fill="#201B21"/>
<path d="M12.1 22.2996C14.8 21.5996 17.7 21.6996 20.6 22.7996C23.8 23.9996 32 25.6996 41.2 17.3996L42.7 15.8996L42.8 15.7996L43.2 15.3996L43 14.8996C42.9 14.4996 42.7 13.9996 42.5 13.4996L42 12.0996L41 13.0996C40.9 13.2996 40.7 13.3996 40.5 13.5996C36.1 18.0996 29.3 22.6996 21.5 19.8996C18 18.5996 14.4 18.3996 11.1 19.2996C7.90001 20.1996 5.1 21.8996 2.5 24.2996V24.1996L1 25.7996C1 25.8996 0.900018 25.8996 0.800018 25.9996L0.5 26.2996L0.600006 26.6996C0.700006 27.1996 0.9 27.6996 1 28.1996L1.60001 29.7996L2.60001 28.4996C2.70001 28.2996 2.9 28.1996 3 27.9996C5.1 26.0996 8.00001 23.3996 12.1 22.2996Z" fill="#201B21"/>
<path d="M2.40002 20.4996C4.70002 18.0996 7.30001 16.5996 10.1 15.7996C12.8 15.0996 15.7 15.1996 18.6 16.2996C27.6 19.5996 35.4 14.1996 38.8 11.2996L40.1 9.99963L40.6 9.59961L40.2 8.99963C39.9 8.69963 39.7 8.29963 39.4 7.89963L38.8 7.09961L38.1 7.79962C38 7.89962 37.8 8.09962 37.7 8.19962C33.5 12.1996 27 16.2996 19.6 13.4996C16.1 12.1996 12.5 11.9996 9.20001 12.8996C7.10001 13.4996 5.10001 14.4996 3.10001 15.7996L1 17.4996C0.8 17.6996 0.7 17.7996 0.5 17.9996L0.300018 18.1996V18.4996C0.200018 19.1996 0.200006 19.8996 0.100006 20.4996L0 22.9996L1.70001 21.1996C1.90001 20.9996 2.10002 20.6996 2.40002 20.4996Z" fill="#201B21"/>
<path d="M28.7004 39.8995L28.5004 40.4995L28.7004 39.8995C28.4004 39.7995 28.2004 39.6995 27.9004 39.5995C24.4004 38.2995 20.8004 38.0995 17.5004 38.9995C16.8004 39.1995 16.1004 39.3995 15.4004 39.6995L13.0004 40.7995L12.4004 41.0995L14.4004 41.7995C15.0004 41.9995 15.6004 42.1995 16.2004 42.3995L16.5004 42.4995L16.8004 42.3995C17.1004 42.2995 17.4004 42.0995 17.7004 42.0995C17.9004 42.0995 18.1004 41.9995 18.3004 41.8995C20.7004 41.2995 23.3004 41.2995 26.1004 42.1995C26.4004 42.2995 26.6004 42.3995 26.9004 42.4995L27.4004 42.6995L27.7004 42.5995C28.4004 42.3995 29.2004 42.1995 29.8004 41.8995L32.6004 40.8995L29.7004 40.1995C29.4004 40.0995 29.0004 39.9995 28.7004 39.8995Z" fill="#201B21"/>
<path d="M44.0008 19.2002L42.5008 20.7002C42.3008 20.9002 42.1008 21.1002 41.9008 21.3002C37.8008 25.2002 31.2008 29.4002 23.8008 26.6002C20.3008 25.3002 16.7008 25.1002 13.4008 26.0002C10.3008 26.9002 7.50076 28.5002 5.00076 30.9002L3.70078 32.3002L3.30078 32.8002L3.70078 33.4002C4.00078 33.8002 4.20079 34.1002 4.40079 34.5002L5.00076 35.4002L5.70078 34.5002C5.80078 34.4002 6.00077 34.2002 6.10077 34.1002C8.50077 31.5002 11.1008 29.9002 14.1008 29.1002C16.8008 28.4002 19.7008 28.5002 22.6008 29.6002C25.1008 30.5002 27.7008 30.8002 30.3008 30.5002C34.9008 30.0002 39.5008 27.4002 42.9008 24.5002C43.1008 24.3002 43.3008 24.2002 43.5008 24.0002L43.8008 23.7002V23.4002C43.8008 22.8002 43.9008 22.1002 43.9008 21.5002L44.0008 19.2002Z" fill="#201B21"/>
<path d="M5.99921 10.0004L5.69922 9.40039L5.99921 10.0004C6.59921 9.7004 7.29923 9.50038 7.89923 9.30038C10.5992 8.60038 13.4992 8.70038 16.3992 9.80038C18.2992 10.5004 20.1992 10.8004 22.2992 10.8004C26.4992 10.8004 30.6992 9.30039 34.5992 6.40039L36.0992 5.20038L36.5992 4.80038L35.6992 4.10037C35.3992 3.80037 34.9992 3.50038 34.5992 3.30038L33.9992 2.90039L33.4992 3.30038C33.2992 3.40038 33.1992 3.60038 32.9992 3.70038C27.6992 7.70038 22.3992 8.80039 17.3992 6.90039C13.7992 5.60039 10.1992 5.30039 6.59921 6.40039C6.29921 6.50039 5.99921 6.60038 5.59921 6.70038L5.39923 6.80038L5.09921 7.10037C5.09921 7.20037 4.99923 7.20038 4.89923 7.30038C4.49923 7.90038 3.99921 8.4004 3.59921 9.0004L1.69922 11.9004L4.79922 10.3004C5.29922 10.3004 5.69921 10.1004 5.99921 10.0004Z" fill="#201B21"/>
<path d="M14.2 3.19998L14.5 3.29999C15.8 3.79999 17.8 4.29999 20.3 4.29999C22.9 4.29999 25.4 3.69998 27.9 2.69998L31 1.19998L28.9 0.5C28.3 0.3 27.7 0.1 27 0H26.7L26.4 0.0999756C26.1 0.199976 25.8 0.4 25.5 0.5C22.5 1.6 19.5 1.8 16.6 1C16.3 0.9 16 0.799982 15.7 0.699982L15.4 0.599976L15.1 0.699982C14.5 0.899982 13.9 1.09999 13.3 1.39999L11 2.39999L13.4 3.09998C13.6 2.99998 13.9 3.09998 14.2 3.19998Z" fill="#201B21"/>
</svg>
