<svg width="180" height="43" viewBox="0 0 180 43" fill="none" xmlns="http://www.w3.org/2000/svg">
<path d="M25.7996 33.0998C22.2996 31.7998 18.6996 31.5998 15.3996 32.4998C13.0996 33.0998 10.8996 34.2998 8.89963 35.7998L7.4996 36.9998L7.09961 37.3998L7.9996 38.1998C8.0996 38.1998 8.09962 38.2998 8.19962 38.3998C8.39962 38.5998 8.59963 38.6998 8.89963 38.8998L9.4996 39.2998L10.0996 38.7998C10.1996 38.6998 10.3996 38.4998 10.5996 38.3998C12.3996 36.8998 14.3996 35.8998 16.4996 35.3998C19.1996 34.6998 22.0996 34.7998 24.9996 35.8998C27.3996 36.7998 32.2996 37.8998 38.1996 35.3998L38.3996 35.2998L38.6996 34.9998C38.6996 34.8998 38.7996 34.8998 38.8996 34.7998C39.3996 34.1998 39.8996 33.5998 40.2996 32.8998L42.2996 29.7998L39.0996 31.5998C34.3996 34.1998 30.0996 34.6998 25.7996 33.0998Z" fill="white"/>
<path d="M12.1 22.2996C14.8 21.5996 17.7 21.6996 20.6 22.7996C23.8 23.9996 32 25.6996 41.2 17.3996L42.7 15.8996L42.8 15.7996L43.2 15.3996L43 14.8996C42.9 14.4996 42.7 13.9996 42.5 13.4996L42 12.0996L41 13.0996C40.9 13.2996 40.7 13.3996 40.5 13.5996C36.1 18.0996 29.3 22.6996 21.5 19.8996C18 18.5996 14.4 18.3996 11.1 19.2996C7.90001 20.1996 5.1 21.8996 2.5 24.2996V24.1996L1 25.7996C1 25.8996 0.900018 25.8996 0.800018 25.9996L0.5 26.2996L0.600006 26.6996C0.700006 27.1996 0.9 27.6996 1 28.1996L1.60001 29.7996L2.60001 28.4996C2.70001 28.2996 2.9 28.1996 3 27.9996C5.1 26.0996 8.00001 23.3996 12.1 22.2996Z" fill="white"/>
<path d="M2.40002 20.4996C4.70002 18.0996 7.30001 16.5996 10.1 15.7996C12.8 15.0996 15.7 15.1996 18.6 16.2996C27.6 19.5996 35.4 14.1996 38.8 11.2996L40.1 9.99963L40.6 9.59961L40.2 8.99963C39.9 8.69963 39.7 8.29963 39.4 7.89963L38.8 7.09961L38.1 7.79962C38 7.89962 37.8 8.09962 37.7 8.19962C33.5 12.1996 27 16.2996 19.6 13.4996C16.1 12.1996 12.5 11.9996 9.20001 12.8996C7.10001 13.4996 5.10001 14.4996 3.10001 15.7996L1 17.4996C0.8 17.6996 0.7 17.7996 0.5 17.9996L0.300018 18.1996V18.4996C0.200018 19.1996 0.200006 19.8996 0.100006 20.4996L0 22.9996L1.70001 21.1996C1.90001 20.9996 2.10002 20.6996 2.40002 20.4996Z" fill="white"/>
<path d="M28.7004 39.8995L28.5004 40.4995L28.7004 39.8995C28.4004 39.7995 28.2004 39.6995 27.9004 39.5995C24.4004 38.2995 20.8004 38.0995 17.5004 38.9995C16.8004 39.1995 16.1004 39.3995 15.4004 39.6995L13.0004 40.7995L12.4004 41.0995L14.4004 41.7995C15.0004 41.9995 15.6004 42.1995 16.2004 42.3995L16.5004 42.4995L16.8004 42.3995C17.1004 42.2995 17.4004 42.0995 17.7004 42.0995C17.9004 42.0995 18.1004 41.9995 18.3004 41.8995C20.7004 41.2995 23.3004 41.2995 26.1004 42.1995C26.4004 42.2995 26.6004 42.3995 26.9004 42.4995L27.4004 42.6995L27.7004 42.5995C28.4004 42.3995 29.2004 42.1995 29.8004 41.8995L32.6004 40.8995L29.7004 40.1995C29.4004 40.0995 29.0004 39.9995 28.7004 39.8995Z" fill="white"/>
<path d="M44.0008 19.2002L42.5008 20.7002C42.3008 20.9002 42.1008 21.1002 41.9008 21.3002C37.8008 25.2002 31.2008 29.4002 23.8008 26.6002C20.3008 25.3002 16.7008 25.1002 13.4008 26.0002C10.3008 26.9002 7.50076 28.5002 5.00076 30.9002L3.70078 32.3002L3.30078 32.8002L3.70078 33.4002C4.00078 33.8002 4.20079 34.1002 4.40079 34.5002L5.00076 35.4002L5.70078 34.5002C5.80078 34.4002 6.00077 34.2002 6.10077 34.1002C8.50077 31.5002 11.1008 29.9002 14.1008 29.1002C16.8008 28.4002 19.7008 28.5002 22.6008 29.6002C25.1008 30.5002 27.7008 30.8002 30.3008 30.5002C34.9008 30.0002 39.5008 27.4002 42.9008 24.5002C43.1008 24.3002 43.3008 24.2002 43.5008 24.0002L43.8008 23.7002V23.4002C43.8008 22.8002 43.9008 22.1002 43.9008 21.5002L44.0008 19.2002Z" fill="white"/>
<path d="M5.99921 10.0004L5.69922 9.40039L5.99921 10.0004C6.59921 9.7004 7.29923 9.50038 7.89923 9.30038C10.5992 8.60038 13.4992 8.70038 16.3992 9.80038C18.2992 10.5004 20.1992 10.8004 22.2992 10.8004C26.4992 10.8004 30.6992 9.30039 34.5992 6.40039L36.0992 5.20038L36.5992 4.80038L35.6992 4.10037C35.3992 3.80037 34.9992 3.50038 34.5992 3.30038L33.9992 2.90039L33.4992 3.30038C33.2992 3.40038 33.1992 3.60038 32.9992 3.70038C27.6992 7.70038 22.3992 8.80039 17.3992 6.90039C13.7992 5.60039 10.1992 5.30039 6.59921 6.40039C6.29921 6.50039 5.99921 6.60038 5.59921 6.70038L5.39923 6.80038L5.09921 7.10037C5.09921 7.20037 4.99923 7.20038 4.89923 7.30038C4.49923 7.90038 3.99921 8.4004 3.59921 9.0004L1.69922 11.9004L4.79922 10.3004C5.29922 10.3004 5.69921 10.1004 5.99921 10.0004Z" fill="white"/>
<path d="M14.2 3.19998L14.5 3.29999C15.8 3.79999 17.8 4.29999 20.3 4.29999C22.9 4.29999 25.4 3.69998 27.9 2.69998L31 1.19998L28.9 0.5C28.3 0.3 27.7 0.1 27 0H26.7L26.4 0.0999756C26.1 0.199976 25.8 0.4 25.5 0.5C22.5 1.6 19.5 1.8 16.6 1C16.3 0.9 16 0.799982 15.7 0.699982L15.4 0.599976L15.1 0.699982C14.5 0.899982 13.9 1.09999 13.3 1.39999L11 2.39999L13.4 3.09998C13.6 2.99998 13.9 3.09998 14.2 3.19998Z" fill="white"/>
<path d="M49.517 14.5455H54.0682L58.875 26.2727H59.0795L63.8864 14.5455H68.4375V32H64.858V20.6392H64.7131L60.196 31.9148H57.7585L53.2415 20.5966H53.0966V32H49.517V14.5455ZM75.1428 32.2472C74.3075 32.2472 73.5632 32.1023 72.9098 31.8125C72.2564 31.517 71.7393 31.0824 71.3587 30.5085C70.9837 29.929 70.7962 29.2074 70.7962 28.3438C70.7962 27.6165 70.9297 27.0057 71.1967 26.5114C71.4638 26.017 71.8274 25.6193 72.2876 25.3182C72.7479 25.017 73.2706 24.7898 73.8558 24.6364C74.4467 24.483 75.0661 24.375 75.7138 24.3125C76.4751 24.233 77.0888 24.1591 77.5547 24.0909C78.0206 24.017 78.3587 23.9091 78.5689 23.767C78.7791 23.625 78.8842 23.4148 78.8842 23.1364V23.0852C78.8842 22.5455 78.7138 22.1278 78.3729 21.8324C78.0376 21.5369 77.5604 21.3892 76.9411 21.3892C76.2876 21.3892 75.7678 21.5341 75.3814 21.8239C74.995 22.108 74.7393 22.4659 74.6143 22.8977L71.2564 22.625C71.4268 21.8295 71.7621 21.142 72.2621 20.5625C72.7621 19.9773 73.407 19.5284 74.1967 19.2159C74.9922 18.8977 75.9126 18.7386 76.9581 18.7386C77.6854 18.7386 78.3814 18.8239 79.0462 18.9943C79.7166 19.1648 80.3104 19.429 80.8274 19.7869C81.3501 20.1449 81.7621 20.6051 82.0632 21.1676C82.3643 21.7244 82.5149 22.392 82.5149 23.1705V32H79.0717V30.1847H78.9695C78.7592 30.5938 78.478 30.9545 78.1257 31.267C77.7734 31.5739 77.3501 31.8153 76.8558 31.9915C76.3615 32.1619 75.7905 32.2472 75.1428 32.2472ZM76.1825 29.7415C76.7166 29.7415 77.1882 29.6364 77.5973 29.4261C78.0064 29.2102 78.3274 28.9205 78.5604 28.5568C78.7933 28.1932 78.9098 27.7812 78.9098 27.321V25.9318C78.7962 26.0057 78.6399 26.0739 78.4411 26.1364C78.2479 26.1932 78.0291 26.2472 77.7848 26.2983C77.5405 26.3437 77.2962 26.3864 77.0518 26.4261C76.8075 26.4602 76.5859 26.4915 76.3871 26.5199C75.9609 26.5824 75.5888 26.6818 75.2706 26.8182C74.9524 26.9545 74.7053 27.1392 74.5291 27.3722C74.353 27.5994 74.2649 27.8835 74.2649 28.2244C74.2649 28.7188 74.4439 29.0966 74.8018 29.358C75.1655 29.6136 75.6257 29.7415 76.1825 29.7415ZM85.3317 32V18.9091H88.8516V21.1932H88.9879C89.2266 20.3807 89.6271 19.767 90.1896 19.3523C90.7521 18.9318 91.3999 18.7216 92.1328 18.7216C92.3146 18.7216 92.5107 18.733 92.7209 18.7557C92.9311 18.7784 93.1158 18.8097 93.2749 18.8494V22.071C93.1044 22.0199 92.8686 21.9744 92.5675 21.9347C92.2663 21.8949 91.9908 21.875 91.7408 21.875C91.2067 21.875 90.7294 21.9915 90.3089 22.2244C89.8942 22.4517 89.5646 22.7699 89.3203 23.179C89.0817 23.5881 88.9624 24.0597 88.9624 24.5938V32H85.3317ZM98.4418 28.233L98.4503 23.8778H98.9787L103.172 18.9091H107.339L101.706 25.4886H100.845L98.4418 28.233ZM95.152 32V14.5455H98.7827V32H95.152ZM103.334 32L99.4815 26.2983L101.902 23.733L107.587 32H103.334ZM114.548 32.2557C113.201 32.2557 112.042 31.983 111.07 31.4375C110.104 30.8864 109.36 30.108 108.837 29.1023C108.315 28.0909 108.053 26.8949 108.053 25.5142C108.053 24.1676 108.315 22.9858 108.837 21.9688C109.36 20.9517 110.096 20.1591 111.045 19.5909C111.999 19.0227 113.119 18.7386 114.403 18.7386C115.266 18.7386 116.07 18.8778 116.815 19.1562C117.565 19.429 118.218 19.8409 118.775 20.392C119.337 20.9432 119.775 21.6364 120.087 22.4716C120.4 23.3011 120.556 24.2727 120.556 25.3864V26.3835H109.502V24.1335H117.138C117.138 23.6108 117.025 23.1477 116.798 22.7443C116.57 22.3409 116.255 22.0256 115.852 21.7983C115.454 21.5653 114.991 21.4489 114.462 21.4489C113.911 21.4489 113.423 21.5767 112.996 21.8324C112.576 22.0824 112.246 22.4205 112.008 22.8466C111.769 23.267 111.647 23.7358 111.641 24.2528V26.392C111.641 27.0398 111.761 27.5994 111.999 28.071C112.244 28.5426 112.587 28.9062 113.031 29.1619C113.474 29.4176 113.999 29.5455 114.607 29.5455C115.011 29.5455 115.38 29.4886 115.715 29.375C116.05 29.2614 116.337 29.0909 116.576 28.8636C116.815 28.6364 116.996 28.358 117.121 28.0284L120.479 28.25C120.309 29.0568 119.96 29.7614 119.431 30.3636C118.908 30.9602 118.232 31.4261 117.403 31.7614C116.579 32.0909 115.627 32.2557 114.548 32.2557ZM129.888 18.9091V21.6364H122.005V18.9091H129.888ZM123.795 15.7727H127.425V27.9773C127.425 28.3125 127.477 28.5739 127.579 28.7614C127.681 28.9432 127.823 29.071 128.005 29.1449C128.192 29.2187 128.408 29.2557 128.653 29.2557C128.823 29.2557 128.994 29.2415 129.164 29.2131C129.335 29.179 129.465 29.1534 129.556 29.1364L130.127 31.8381C129.945 31.8949 129.69 31.9602 129.36 32.0341C129.031 32.1136 128.63 32.1619 128.158 32.179C127.283 32.2131 126.516 32.0966 125.857 31.8295C125.204 31.5625 124.695 31.1477 124.332 30.5852C123.968 30.0227 123.789 29.3125 123.795 28.4545V15.7727ZM132.603 32V14.5455H139.489C140.813 14.5455 141.941 14.7983 142.873 15.304C143.805 15.804 144.515 16.5 145.004 17.392C145.498 18.2784 145.745 19.3011 145.745 20.4602C145.745 21.6193 145.495 22.642 144.995 23.5284C144.495 24.4148 143.771 25.1051 142.822 25.5994C141.879 26.0937 140.737 26.3409 139.396 26.3409H135.006V23.3835H138.799C139.509 23.3835 140.094 23.2614 140.555 23.017C141.021 22.767 141.367 22.4233 141.594 21.9858C141.827 21.5426 141.944 21.0341 141.944 20.4602C141.944 19.8807 141.827 19.375 141.594 18.9432C141.367 18.5057 141.021 18.1676 140.555 17.929C140.089 17.6847 139.498 17.5625 138.782 17.5625H136.293V32H132.603ZM148.074 32V18.9091H151.594V21.1932H151.73C151.969 20.3807 152.369 19.767 152.932 19.3523C153.494 18.9318 154.142 18.7216 154.875 18.7216C155.057 18.7216 155.253 18.733 155.463 18.7557C155.673 18.7784 155.858 18.8097 156.017 18.8494V22.071C155.847 22.0199 155.611 21.9744 155.31 21.9347C155.009 21.8949 154.733 21.875 154.483 21.875C153.949 21.875 153.472 21.9915 153.051 22.2244C152.636 22.4517 152.307 22.7699 152.062 23.179C151.824 23.5881 151.705 24.0597 151.705 24.5938V32H148.074ZM163.2 32.2557C161.876 32.2557 160.731 31.9744 159.765 31.4119C158.805 30.8437 158.063 30.054 157.54 29.0426C157.018 28.0256 156.756 26.8466 156.756 25.5057C156.756 24.1534 157.018 22.9716 157.54 21.9602C158.063 20.9432 158.805 20.1534 159.765 19.5909C160.731 19.0227 161.876 18.7386 163.2 18.7386C164.523 18.7386 165.665 19.0227 166.626 19.5909C167.592 20.1534 168.336 20.9432 168.859 21.9602C169.381 22.9716 169.643 24.1534 169.643 25.5057C169.643 26.8466 169.381 28.0256 168.859 29.0426C168.336 30.054 167.592 30.8437 166.626 31.4119C165.665 31.9744 164.523 32.2557 163.2 32.2557ZM163.217 29.4432C163.819 29.4432 164.322 29.2727 164.725 28.9318C165.129 28.5852 165.433 28.1136 165.637 27.517C165.847 26.9205 165.952 26.2415 165.952 25.4801C165.952 24.7188 165.847 24.0398 165.637 23.4432C165.433 22.8466 165.129 22.375 164.725 22.0284C164.322 21.6818 163.819 21.5085 163.217 21.5085C162.609 21.5085 162.097 21.6818 161.683 22.0284C161.273 22.375 160.964 22.8466 160.754 23.4432C160.549 24.0398 160.447 24.7188 160.447 25.4801C160.447 26.2415 160.549 26.9205 160.754 27.517C160.964 28.1136 161.273 28.5852 161.683 28.9318C162.097 29.2727 162.609 29.4432 163.217 29.4432Z" fill="white"/>
</svg>
